<svg xmlns="http://www.w3.org/2000/svg" width="78" height="68" viewBox="0 0 78 68">
    <g fill="none" fill-rule="evenodd">
        <path stroke="#18130F" stroke-linecap="round" stroke-width="3" d="M54.991 35.817a16.25 16.25 0 0 1 5.007-.791c8.658 0 15.783 6.91 15.783 15.309 0 8.398-7.125 15.308-15.783 15.308s-15.783-6.91-15.783-15.308a15.02 15.02 0 0 1 3.364-9.447M22.29 35.817a16.25 16.25 0 0 0-5.007-.791c-8.66 0-15.783 6.91-15.783 15.309 0 8.398 7.124 15.308 15.783 15.308 8.658 0 15.782-6.91 15.782-15.308 0-3.425-1.184-6.752-3.363-9.447"/>
        <path stroke="#18130F" stroke-linecap="round" stroke-width="3" d="M11.929 35.642c3.516-2.215 13.519-7.882 27.5-7.53 12.491.315 21.387 5.263 24.981 7.53M32.784 53.443a10.613 10.613 0 0 1 11.275 0"/>
        <path fill="#18130F" d="M17.67 41.513h-.374a3.899 3.899 0 0 0-3.895 3.895v.951h-.95a3.899 3.899 0 0 0-3.895 3.894v.373a3.899 3.899 0 0 0 3.895 3.894h.95v.951a3.899 3.899 0 0 0 3.895 3.895h.373a3.9 3.9 0 0 0 3.895-3.895v-.95h.95a3.899 3.899 0 0 0 3.895-3.895v-.373a3.899 3.899 0 0 0-3.895-3.894h-.95v-.95a3.9 3.9 0 0 0-3.895-3.896m0 3c.494 0 .895.401.895.895v3.056c0 .494.4.895.894.895h3.056c.494 0 .895.4.895.894v.373a.895.895 0 0 1-.895.894h-3.056a.895.895 0 0 0-.894.895v3.056a.895.895 0 0 1-.895.895h-.373a.895.895 0 0 1-.895-.895v-3.056c0-.494-.4-.895-.894-.895h-3.056a.895.895 0 0 1-.895-.894v-.373c0-.494.401-.894.895-.894h3.056a.895.895 0 0 0 .894-.895v-3.056c0-.494.401-.895.895-.895h.373M62.099 44.812a2.572 2.572 0 1 1-5.144 0 2.572 2.572 0 0 1 5.144 0M62.099 56.44a2.572 2.572 0 1 1-5.144 0 2.572 2.572 0 0 1 5.144 0M65.34 53.197a2.573 2.573 0 1 1 .002-5.145 2.573 2.573 0 0 1-.001 5.145M53.713 53.197a2.573 2.573 0 1 1 .001-5.145 2.573 2.573 0 0 1 0 5.145"/>
        <path stroke="#18130F" stroke-linecap="round" stroke-width="3" d="M38.99 26.771v-5.743a3.426 3.426 0 0 0-3.426-3.426h-9.101a3.426 3.426 0 0 1-3.426-3.426v-.006a3.426 3.426 0 0 1 3.426-3.426H48.46a3.426 3.426 0 0 0 3.426-3.427v-2.39A3.426 3.426 0 0 0 48.46 1.5H33.622"/>
    </g>
</svg>
