<svg xmlns="http://www.w3.org/2000/svg" width="78" height="78" viewBox="0 0 78 78">
    <g fill="none" fill-rule="evenodd" stroke="#18130F" stroke-linecap="round" stroke-width="3">
        <path d="M68.922 27.25A31.487 31.487 0 0 1 71 38.5C71 55.78 56.78 70 39.5 70S8 55.78 8 38.5 22.22 7 39.5 7c3.653 0 7.277.635 10.71 1.877"/>
        <path d="M55.817 32.581A18.018 18.018 0 0 1 57 39C57 48.874 48.874 57 39 57c-9.875 0-18-8.126-18-18s8.125-18 18-18c2.107 0 4.198.37 6.177 1.094"/>
        <path d="M48 39c0 4.937-4.063 9-9 9s-9-4.063-9-9 4.063-9 9-9M38 41L70 8M71.583 17.825c2.423-.65 3.234-3.678 1.46-5.452l-5.448-1.993-1.967-5.423c-1.775-1.775-4.803-.963-5.453 1.46L56 22l15.583-4.175zM38.5 2v5M38.5 71v5M76 38.5h-5M7 38.5H2"/>
    </g>
</svg>
