<svg xmlns="http://www.w3.org/2000/svg" width="63" height="67" viewBox="0 0 63 67">
    <g fill="none" fill-rule="evenodd" stroke="#18130F" stroke-width="3">
        <path stroke-linejoin="round" d="M44.888 65.37h-25.56a1 1 0 0 1-1-1V51.21a1 1 0 0 1 1-1h25.56a1 1 0 0 1 1 1V64.37a1 1 0 0 1-1 1z"/>
        <path stroke-linejoin="round" d="M39.51 60.622H24.706a1 1 0 0 1-1-1V55.96a1 1 0 0 1 1-1H39.51a1 1 0 0 1 1 1v3.663a1 1 0 0 1-1 1z"/>
        <path d="M36.136 38.956l-.202.201c-2.316 2.322-5.926 2.284-8.214-.069A51.628 51.628 0 0 1 12.575 2.575V1.5h39.066v.602c0 14.055-5.77 27.292-15.505 36.854z"/>
        <path d="M12.18 4.945H5.745a4.246 4.246 0 0 0-3.554 6.571l13.14 20.099a4.247 4.247 0 0 0 3.554 1.923h3.421M51.314 4.945h5.605a4.247 4.247 0 0 1 3.555 6.571L47.335 31.615a4.249 4.249 0 0 1-3.555 1.923h-2.594"/>
        <path stroke-linecap="round" d="M22.17 50.09c.97-.606 3.264-2.216 4.626-5.189a11.217 11.217 0 0 0 .99-5.488M41.871 50.09c-.97-.606-3.265-2.216-4.627-5.189a11.217 11.217 0 0 1-.99-5.488"/>
    </g>
</svg>
