<svg xmlns="http://www.w3.org/2000/svg" width="147" height="64" viewBox="0 0 147 64">
    <g fill="none" fill-rule="evenodd">
        <path fill="#FFF" d="M86.706 15.477l1.86-3.119-.462-.492-2.367 1.701.969 1.91M72.363 37.2c-1.65 1.981-2.497 4.235-3.1 6.683-.272 1.103-1.348 1.993-2.011 3.012-.375.576-.745 1.186-.956 1.835-.713 2.182-1.282 4.414-2.06 6.57-.29.803-1.154 1.384-1.491 2.181-.639 1.51-.967 3.09-.243 4.727.407.922.154 1.594-.988 1.647-.106.005-.21.042-.317.057-2.876.384-3.622-.463-3.005-3.306.464-2.134 1.516-4.187.903-6.49-.086-.325.066-.758.212-1.095 1.11-2.548 2.293-5.065 3.347-7.636.371-.907.483-1.932.647-2.914.125-.746.02-1.547.232-2.258.646-2.172.26-4.328.074-6.495-.027-.306-.102-.754.06-.908 1.549-1.482.463-3.217.538-4.841.05-1.066.279-2.124.436-3.248-1.36-.004-1.419-1.073-1.024-2.478a7.278 7.278 0 0 0 .288-2.09c-.029-1.393-.054-2.648 1.927-2.493.176.014.645-.97.606-1.46-.194-2.514.17-4.872 1.584-6.99 1.191-1.784 3.078-2.396 5.275-1.572-.096-.623-.16-1.102-.246-1.578-.41-2.275.704-4.684 2.62-5.647 1.744-.876 4.626-.306 5.968 1.182 1.113 1.235.846 3.957-.39 5.018-.3.258-.396.92-.343 1.365.025.21.672.555.954.486.836-.202 1.632-.579 2.52-.917.65.17 1.619.612 2.6.64 3.274.092 6.553.024 9.83.045.723.004 1.444.121 2.275.196l.158-1.862c.644 2.841 1.493 3.349 4.578 3.028.884-.092 1.787-.014 2.681-.014l.04.518c-.684.047-1.369.142-2.052.131-2.151-.033-4.263-.272-6.4.588-1.115.449-2.549.08-3.838.1-2.023.033-3.454 1.767-3.096 3.771.14.777.534 1.512-.526 2.059-.335.172-.382.963-.51 1.484-.656 2.67-2.609 3.805-5.167 2.862-1.298-.48-2.518-1.176-3.858-1.814-.377.69-.799 1.302.22 1.836.214.111.488.423.47.618-.211 2.392-.423 4.786-.787 7.156-.04.26-1.033.37-2.028.694.258.764.457 1.76.911 2.618 1.233 2.328 2.472 4.665 3.896 6.875 2.195 3.406 1.926 7.014 1.34 10.757-.314 2.004-.315 4.063-.39 6.1-.073 1.972 1.302 3.924 3.145 4.63.399.154.855.284 1.138.571.26.263.449.734.42 1.094-.016.204-.534.528-.821.523-1.546-.028-3.09-.13-4.635-.232-.792-.053-1.588-.273-2.368-.218-1.337.095-1.686-.4-1.495-1.713.284-1.955.593-3.947.509-5.906-.085-1.968-.745-3.906-.937-5.879-.094-.966.328-1.977.465-2.975.156-1.138.062-2.08-1.49-2.036-.384.011-.87-.378-1.154-.716-.518-.618-.887-1.359-1.374-2.006-.776-1.033-1.148-2.46-2.78-2.678-.368-.05-.65-.765-.987-1.192M28.607 48.572h19.734V44.47c-.631-.027-1.212-.073-1.794-.074-4.04-.006-8.08.007-12.12-.007-3.812-.013-5.87-2.187-6.078-5.908-.302-5.415 1.78-8.124 7.823-7.786 3.919.219 7.86.014 11.79.054 2.913.03 4.841 1.685 5.363 4.662H33.983v4.03c.607.027 1.184.073 1.761.074 4.04.007 8.08-.01 12.12.01 3.897.018 6.059 2.182 6.073 6.044.004.919.034 1.843-.056 2.755-.282 2.866-2.41 4.92-5.308 4.958-4.967.067-9.937.07-14.904-.002-2.793-.041-4.786-1.93-5.062-4.708"/>
        <path fill="#FFF" d="M96.521 47.593h7.395c2.455 0 4.912-.034 7.366.018 1.002.021 1.366-.332 1.312-1.317-.065-1.17-.015-2.348-.015-3.725-2.521 0-4.85.03-7.178-.008-2.635-.043-4-1.097-4.637-3.595h16.502c0 3.021.179 6.04-.06 9.026-.177 2.233-2.325 3.912-4.732 3.947-5.237.078-10.477.085-15.714 0-2.78-.045-4.884-2.074-4.964-4.853-.122-4.267-.118-8.542.003-12.809.08-2.824 2.261-4.86 5.107-4.895a613.95 613.95 0 0 1 15.387 0c2.672.034 4.627 1.81 4.796 4.278h-2.105c-5.62 0-11.24.027-16.86-.021-1.152-.01-1.656.218-1.631 1.504.078 4.045.028 8.093.028 12.45M127.542 47.792h14.527V33.61h-14.527v14.183zm7.343 4.19c-2.246.002-4.493.028-6.74-.004-3.341-.046-5.394-2.132-5.408-5.489-.016-3.945-.02-7.89.007-11.834.02-3.006 1.996-5.192 4.963-5.252 4.76-.096 9.523-.088 14.283-.005 2.76.048 4.88 2.186 4.941 4.978.093 4.159.088 8.323.01 12.482-.055 2.96-2.192 5.03-5.155 5.11-2.298.063-4.6.013-6.9.015zM24.275 35.605H6.095V48.23h18.152c-.125 2.779-1.982 4.928-4.562 4.999-4.97.136-9.948.144-14.917-.004C2.135 53.147.123 50.771.065 47.94c-.082-3.956-.092-7.916.003-11.87.077-3.227 2.283-5.345 5.465-5.373 4.492-.04 8.986-.04 13.479.006 2.906.03 4.868 1.825 5.263 4.903"/>
    </g>
</svg>
