<svg xmlns="http://www.w3.org/2000/svg" xmlns:xlink="http://www.w3.org/1999/xlink" width="121" height="121" viewBox="0 0 121 121">
    <defs>
        <linearGradient id="c" x1="50%" x2="50%" y1="0%" y2="100%">
            <stop offset="0%" stop-color="#B50312"/>
            <stop offset="100%" stop-color="#7F0013"/>
        </linearGradient>
        <path id="a" d="M33.193.082c-.474 1.172-1.136.657-1.136.657l-1.468-.14-.237 1.03-.474-.984c-.426 1.829-.852 1.594-.852 1.594l-1.18.042c.009.073-.022.236-.146.568-.331.89-1.278 0-1.278 0s-3.22.187-4.83.093c-1.61-.093-2.51-1.36-2.51-1.36l-.615.845-1.515-.188-.095-.469-.805.469-3.41-.094-.33.329-.522-.563-.852-.047-.379.422-.52-.703-.285-.047-.284.75-.473-.375-2.036-.094-.44-.81c-2.812 2.85-5.156.463-5.156.463l-.37 2.972-.285-.047-.142-1.734.332-.094.094-.281-.852-.094L0 5.99c.71 1.078.852-.047.852-.047l.426.234c-1.61 16.83.71 24.05.71 24.05-1.657 4.173.948 5.345.948 5.345l-.095 2.813-1.278-.703-.048.703.663.375-.19.328c-.662-.562-.899-.422-.899-.422-.379 6.658.284 9.611.284 9.611l1.468.235-.331 7.97-1.137.046c-.473.75-.52 3.657-.52 3.657 1.041 8.345-.38 10.877-.38 10.877l2.179.328-.048 1.031.474.235c.095-.75.852-.938.852-.938.52.188.047.985.047.985l.474.094.19-1.032h.284l-.048.61.474.046c2.083-.937 2.225.094 2.225.094l.19-1.172c.284.75 2.51.61 2.51.61 1.94-.235 2.177.61 2.177.61l-.095-1.173h.427c.19.89.805.656.805.656.095-1.219.615-.984.615-.984.38.422.284 1.406.284 1.406l.521.235c.19-.891 1.137-.75 1.137-.75l.805-.563v.563h.852l.237-.61c.236.14.378 1.078.378 1.078h.427l.331-.234.237.328c.047-.469.663-.797.663-.797l.568.844.426-.14-.047-.61c.426-.235 1.42.797 1.42.797l.237-.281-.474-.563.663-.703c.048.562.948 1.547.948 1.547-.332-1.453.52-1.688.52-1.688.521 1.641 1.61 1.688 1.61 1.688.095-.656.332-.703.332-.703 1.326 1.406 3.977.187 3.977.187l1.8 2.907c.426-.516 1.562-.422 1.562-.422l-.236-.797c3.22-1.031 4.261.797 4.261.797l.616-.89.378-.048.048.704c1.089.75 3.504-.141 3.504-.141l-.569-.422c-.236-.563 7.008-.469 7.008-.469.048.328-.284.563-.284.563l-1.846.14c1.799 1.172 3.267-.28 3.267-.28l.19-.798-.616.14c.284-.703 1.041-.468 1.041-.468l-.331 1.125c.52.188.9-.14.9-.14l.047-.797h.331l-.19.656c2.51-.75 4.31-.422 4.31-.422.237-1.125 1.373-.89 1.373-.89 1.657 1.265 3.694.421 3.694.421 4.214 2.063 6.486-.047 6.486-.047.947 1.266.9-.094.9-.094l1.231-.047.19-.375-2.841-.234c2.32-2.297 8.38 1.172 8.38 1.172l-.283-30.333c-3.22.329-1.99-.75-1.99-.75.617.516.948.141.948.141-.237-2.157.426-3.376.426-3.376-.852-.609.284-3.234.284-3.234-1.468.093-.757-2.813-.757-2.813-1.231-.235-1.042-1.078-1.042-1.078.805-.798-.332-.329-.332-.329-1.183-2.063.995-2.719.995-2.719l-.852-2.157 2.178-.046c.994-11.721-.427-18.425-.427-18.425 1.137-.61.285-4.407.285-4.407-2.32-.469-2.084-1.453-2.084-1.453l-2.036-.047-.71-.422c-.048 1.594-3.74-.14-3.74-.14-1.611 1.78-2.037-1.126-2.037-1.126.085.012.052-.007-.035-.025-.253-.055-.956-.11-.533.588.568.937-.142.984-.142.984C49.67.364 48.535 1.395 48.535 1.395c1.373.89-.048 2.016 0 2.344-2.51-.047-3.125.469-3.125.469-.048-2.11-2.747-3.516-4.404-3.375-1.657.14-2.652-.704-2.652-.704-1.562 1.454-5.161-.047-5.161-.047zM8.807 15.178c5.303-3.422 7.86-.703 7.86-.703l5.588 3.891-.284.328 1.231 1.22.284-.141-.568-.704 1.184.657-.284.469.236.234.426-.328.427.422.757.047c-.094 1.219 1.8 1.125 1.8 1.125L57.53 41.948l-.379.422.806.656-.474-.047-1.373-.562-.048.61 3.647.327 6.25 4.173c-.38 8.486-4.877 14.158-4.877 14.158-9.47.61-11.223-3.516-11.223-3.516l-7.576-8.016.332-.422-.805-.75.047.609c-.805-1.594-1.752-2.11-1.752-2.11l.237.75c-1.09-.89-.758-1.922-.758-1.922l-1.42-1.828c-1.137-.61-.332.328-.332.328l1.09 1.219-.285.422s-1.894-1.594-3.078-3.798c-1.183-2.203-.284.235-.284.235l-7.339-7.876.568.421s.71.938.284-.14c-.426-1.079-1.799-.89-1.799-.89L8.807 15.177zm35.68 1.57s7.125-1.78 9.422-2.507c2.296-.727 3.457.14 3.457.14l3.29 2.391-.023.305-.497-.14s-.426.21-.237.937c.19.727.379-.094.379-.094l-.048-.375.426-.023-1.515 9.634-.615.047-.403-.516h-.71s.19-1.406-.568-1.43c-.758-.023-.355.47-.355.47l.591.28-.165.329-12.43-9.447zM10.203 57.936s-.9-.328-.19-2.462c.711-2.132 4.546-10.29 4.546-10.29l14.774 14.135-10.465 3.329-.639-.399s-.158.65-.796.441c-.214.07-.364-.183-.364-.183.137.091.257.148.364.183.137-.044.299-.22.465-.675 0 0-.166-.376-.403 0l-.166.351-.047-.68-.426.282-.332-.047-.07.61-6.25-4.595z"/>
        <filter id="b" width="198.8%" height="198.8%" x="-49.4%" y="-46.7%" filterUnits="objectBoundingBox">
            <feOffset dy="2" in="SourceAlpha" result="shadowOffsetOuter1"/>
            <feGaussianBlur in="shadowOffsetOuter1" result="shadowBlurOuter1" stdDeviation="12"/>
            <feColorMatrix in="shadowBlurOuter1" values="0 0 0 0 0.961710989 0 0 0 0 0.65036732 0 0 0 0 0.138542295 0 0 0 1 0"/>
        </filter>
    </defs>
    <g fill="none" fill-rule="evenodd" transform="translate(23 21)">
        <use fill="#000" filter="url(#b)" xlink:href="#a"/>
        <use fill="url(#c)" xlink:href="#a"/>
    </g>
</svg>
