<svg xmlns="http://www.w3.org/2000/svg" width="25" height="28" viewBox="0 0 25 28">
    <g fill="none" fill-rule="evenodd">
        <ellipse cx="12.5" cy="15.273" fill="#DD9F05" rx="12.5" ry="12.727"/>
        <ellipse cx="12.5" cy="14.955" fill="#01579B" rx="11.218" ry="11.136"/>
        <path fill="#0277BD" fill-rule="nonzero" d="M18.59 19.44c.589 1.976-1.388 3.417-2.938 3.417-.847 0-1.895-.341-2.19-1.385a21.996 21.996 0 0 0-2.565 1.705v1.005h8.28a11.487 11.487 0 0 0 2.995-4.214c-.548-.216-1.666-.528-3.582-.528zm1.644-11.804a13.949 13.949 0 0 0-5.162 2.971c-.566 1.814-1.92 3.81-4.174 5.447v4.741s1.792-3.46 6.037-4.516a34.346 34.346 0 0 1 6.142-.938c-.006-2.853-1.02-5.6-2.843-7.705z"/>
        <path fill="#0091EA" d="M19.23 6.38a11.106 11.106 0 0 0-2.002-1.29c-.722.321-1.626.761-2.484 1.294.407.49.62 1.143.638 1.889 1.185-.8 2.48-1.437 3.849-1.893z"/>
        <ellipse cx="12.821" cy="15.591" fill="#0277BD" rx="9.615" ry="9.864"/>
        <path fill="#00B0FF" d="M16.426 6.364c-.346.183-.696.379-1.041.593.42.506.64 1.182.658 1.952a16.497 16.497 0 0 1 2.547-1.4 10.125 10.125 0 0 0-2.164-1.145z"/>
        <path fill="#0091EA" d="M22.436 15.19a9.705 9.705 0 0 0-2.88-6.917 14.277 14.277 0 0 0-3.844 2.362c-.566 1.732-1.92 3.637-4.174 5.202v4.527s1.793-3.305 6.036-4.312c1.6-.377 3.223-.643 4.859-.798 0-.022.003-.043.003-.064z"/>
        <path fill="#B3831D" fill-rule="nonzero" d="M22.436 22.641H18.21v1.34h3.153a12.69 12.69 0 0 0 1.073-1.34zM11.028 2.618v25.31c.43.047.865.072 1.306.072V2.545c-.441 0-.876.026-1.306.072zM3.846 24.537c.411.395.846.765 1.306 1.1V4.908c-.46.337-.895.705-1.306 1.102v18.527z"/>
        <path fill="#01579B" d="M3.846 22.851c.39.48.821.923 1.282 1.33V7c-.46.407-.892.85-1.282 1.33V22.852z"/>
        <path fill="#FFC107" d="M3.205 0h7.932v24H24.36l-3.305 4H3.205l1.983-2.667V2.667z"/>
        <path fill="#01579B" d="M12.27 22.231V3.818c-.465 0-.921.035-1.373.085v19.642h8.882c.495-.4.954-.842 1.375-1.315H12.27v.001z"/>
        <path fill="#0277BD" d="M12.18 15.273a11.09 11.09 0 0 1-1.283 1.068V21s.408-.764 1.282-1.677v-4.05z"/>
        <path fill="#E8A30A" d="M10.954 24.116V0H9.615v25.455h13.627l1.117-1.34z"/>
        <path fill="#0091EA" d="M18.78 19.091c.604 1.857-1.422 3.21-3.01 3.21-.868 0-1.943-.32-2.244-1.3-.913.474-1.791 1.01-2.629 1.6v.944h6.217a9.69 9.69 0 0 0 4.04-4.28 14.664 14.664 0 0 0-2.373-.174z"/>
        <path fill="#0277BD" d="M20.774 22.636c.136-.138.252-.292.38-.437H16.41c-.137.018-.275.03-.408.03-.144 0-.293-.012-.443-.03h-3.286v-.563c-.469.289-.928.593-1.377.911v.998h8.89c.342-.281.669-.58.976-.897l.011-.012z"/>
    </g>
</svg>
