<svg xmlns="http://www.w3.org/2000/svg" width="47" height="28" viewBox="0 0 47 28">
    <g fill="#FFF" fill-rule="evenodd">
        <path d="M41.728 14.72c-.223.74.222 1.26.667 1.26.52 0 .816-.37 1.113-.964.148-.445.074-1.039-.074-1.261-.445-.594-1.41-.148-1.706.964"/>
        <path d="M44.546 17.39h-1.483l-.149-.371c-.296.148-.741.37-1.186.37-.965 0-1.855-1.335-1.41-2.892.668-2.3 1.855-2.151 2.596-2.151.594 0 .742.37 1.039.593l.37-1.929h1.41l-1.187 6.38zm-5.711-2.3l-.445 2.3h-1.41l.965-5.044h1.187l.148.519c.222-.223.593-.52 1.335-.52l-.37 1.336c-.372 0-.965-.074-1.41 1.41zm-2.003-.37l-.52 2.744h-1.26l-.149-.297c-.222.148-.445.297-1.112.297-.668 0-1.558-.52-1.41-1.558.371-2.151 2.82-1.78 3.19-1.78.148-.742-.37-.668-.816-.668-.445 0-1.335.149-1.706.149l.223-1.113c.89-.148 1.409-.148 1.631-.074 2.3 0 2.077 1.632 1.93 2.3zm-5.044 1.112l.37 1.26c-.444.223-.89.297-1.63.297-1.41 0-2.968-1.26-2.3-3.857.519-1.854 2.15-2.596 3.115-2.522 1.113.075 1.558.445 1.854.816l-.89.89c-.37-.222-.593-.222-1.038-.222-.445 0-1.484.445-1.632 1.632-.222 1.483.742 2.15 2.151 1.706zm-5.192-.668l-.445 2.3h-1.41v-.075l.965-4.97h1.187l.148.52c.222-.223.593-.52 1.335-.52l-.37 1.336c-.298 0-.965-.074-1.41 1.41zm-2.151 2.003c-.371.148-1.187.222-1.78.222-2.374 0-2.374-2.225-2.3-2.521 0-.297.297-2.522 2.522-2.522 2.374 0 2.003 2.002 1.854 2.818H21.85c-.149 1.113.741 1.113 1.26 1.113.594 0 1.336-.074 1.558-.149l-.222 1.039zm-4.525 0c-.297.222-.668.222-1.039.222-.296 0-1.335-.222-1.112-1.557l1.038-4.747h1.336l-.297 1.335h.742l-.223 1.038h-.668l-.37 2.003c-.075.37 0 .742.741.593l-.148 1.113zm-2.3-1.261c-.222 1.483-1.854 1.41-2.225 1.41-.519 0-.964 0-1.632-.149l.223-1.039c.668.223 1.558.149 1.78.149.445 0 .52-.594.148-.742-.296-.148-.593-.37-1.112-.593-.297-.149-.668-.52-.445-1.484.222-1.187 1.854-1.187 2.077-1.187.148 0 .667 0 1.335.223l-.297 1.038c-.37-.074-1.038-.074-1.26-.148-.52.148-.298.593 0 .742.296.074.667.37.964.519.222.223.593.52.445 1.261zm-4.45 1.558H11.91l-.148-.297c-.223.148-.445.297-1.113.297-.668 0-1.558-.52-1.41-1.558.372-2.151 2.82-1.78 3.19-1.78.223-.742-.37-.668-.816-.668-.445 0-1.335.149-1.706.149l.223-1.113c.89-.148 1.335-.148 1.632-.074 2.3 0 2.077 1.632 1.928 2.3l-.519 2.744zm-6.008-.075l.816-4.302-1.929 4.302H4.79l-.372-4.376-.89 4.376H2.192l1.187-6.082h2.15l.298 3.709 1.631-3.709h2.3l-1.187 6.082h-1.41zM44.82 6.817A13.517 13.517 0 0 0 34.404.592l-.017-.001a14.343 14.343 0 0 0-.627-.033l-.087-.002a13.52 13.52 0 0 0-8.931 3.037c1.78 1.706 3.189 3.857 3.856 6.305h-1.112c-.742-2.151-1.929-4.08-3.56-5.638-1.632 1.558-2.82 3.487-3.561 5.638h-1.113a14.543 14.543 0 0 1 3.858-6.305 13.786 13.786 0 0 0-2.878-1.808 13.135 13.135 0 0 0-3.77-1.106l-.06-.008-.083-.01a12.932 12.932 0 0 0-1.665-.11l-.038.001h-.037C7.088.552 1.005 6.708 1.005 14.2s6.083 13.648 13.649 13.648c3.263 0 6.23-1.187 8.53-3.04a14.543 14.543 0 0 1-3.857-6.306h1.112c.742 2.151 1.929 4.08 3.56 5.637 1.632-1.557 2.894-3.486 3.561-5.637h1.113a14.544 14.544 0 0 1-3.857 6.305 13.52 13.52 0 0 0 8.604 3.041c7.492 0 13.574-6.156 13.574-13.648 0-2.713-.798-5.25-2.174-7.383z"/>
        <path d="M22.961 13.31c-.593 0-.964.296-1.112.89h1.706c.074-.52-.075-.89-.594-.89M11.019 15.313c-.445.296-.593.815-.074.964.445.148 1.038-.149 1.187-.594l.074-.519c-.223 0-.742-.148-1.187.149M34.236 15.313c-.445.296-.593.815-.074.964.445.148 1.112-.149 1.187-.594l.074-.519c-.223 0-.742-.148-1.187.149"/>
    </g>
</svg>
