<svg xmlns="http://www.w3.org/2000/svg" width="179" height="176" viewBox="0 0 179 176">
    <g fill="#FFF" fill-rule="evenodd" opacity=".35">
        <path d="M52.51 31.989c-5.746.14-10.343 4.792-10.495 10.617 5.746-.141 10.344-4.792 10.495-10.617zM60.583 138.83c1.661-4.596-.533-9.745-4.993-11.714-1.668 4.598.533 9.752 5 11.711l-.007.003zM33.723 72.147a9.134 9.134 0 0 0 3.132-5.985 9.248 9.248 0 0 0-6.41 2.269 9.134 9.134 0 0 0-3.133 5.978 9.332 9.332 0 0 0 6.411-2.262zM70.05 143.63a9.023 9.023 0 0 0-1.222-6.923c-1.374-2.124-3.498-3.514-5.871-4.068a9.04 9.04 0 0 0 1.222 6.923c1.374 2.124 3.498 3.515 5.871 4.068zM78.746 146.009a9.656 9.656 0 0 0-2.296-6.49 9.132 9.132 0 0 0-5.954-3.207 9.639 9.639 0 0 0 2.297 6.49 9.158 9.158 0 0 0 5.945 3.21l.008-.003zM35.652 64.74c2.099-1.368 3.453-3.518 3.99-5.896a8.765 8.765 0 0 0-6.845 1.183 9.418 9.418 0 0 0-3.989 5.896 8.765 8.765 0 0 0 6.844-1.183zM44.55 128.231a9.542 9.542 0 0 0 2.178-6.813c-.201-2.527-1.415-4.724-3.212-6.263a9.534 9.534 0 0 0-2.178 6.812c.201 2.528 1.405 4.72 3.213 6.264zM40.685 115.395a9.846 9.846 0 0 0-2.129-6.592 9.122 9.122 0 0 0-2.736 6.162 9.837 9.837 0 0 0 2.119 6.587c1.585-1.53 2.625-3.698 2.743-6.165l.003.008zM50.055 45.407a9.123 9.123 0 0 0-12.215 3.069 9.123 9.123 0 0 0 12.215-3.069zM52.705 134.379c2.35-4.273.973-9.7-3.136-12.354-2.35 4.274-.973 9.7 3.136 12.354zM33.986 98.188a8.76 8.76 0 0 0 .095-6.65 9.385 9.385 0 0 0-4.764 4.873 8.769 8.769 0 0 0-.095 6.65 9.384 9.384 0 0 0 4.767-4.865l-.003-.008zM32.246 90.45a11.197 11.197 0 0 0 .673-7.45 7.866 7.866 0 0 0-5.007 4.321 11.205 11.205 0 0 0-.673 7.45c2.092-.568 3.907-2.044 5.007-4.321zM37.946 107.311a9.08 9.08 0 0 0-1.014-6.905c-2.025 1.325-3.568 3.36-4.18 5.828a9.105 9.105 0 0 0 1.021 6.902c2.018-1.322 3.561-3.358 4.173-5.825zM26.513 84.946c5.233-.614 9.055-5.244 8.738-10.585-5.232.615-9.054 5.244-8.738 10.585zM139.098 119.855a9.489 9.489 0 0 0 2.09-6.836c-.233-2.517-1.489-4.682-3.338-6.167a9.472 9.472 0 0 0-2.09 6.836 9.036 9.036 0 0 0 3.338 6.167zM146.73 95.045a9.338 9.338 0 0 0-4.865-4.8c-1.564 4.634.723 9.74 5.213 11.638a9.412 9.412 0 0 0-.348-6.838zM143.273 110.358c.828-2.108.923-4.445.269-6.63-.666-2.368-2.053-4.326-3.751-5.604a10.148 10.148 0 0 0-.278 6.633c.674 2.365 2.053 4.326 3.76 5.6zM40.226 40.374a8.024 8.024 0 0 0-1.97-6.692 10.54 10.54 0 0 0-4.004 6.546 8.041 8.041 0 0 0 1.962 6.694 10.549 10.549 0 0 0 4.012-6.548zM148.33 85.1a9.549 9.549 0 0 0-5.917-3.999 9.198 9.198 0 0 0 1.38 6.922c1.413 2.11 3.556 3.477 5.918 3.998a9.216 9.216 0 0 0-1.38-6.921zM125.23 126.735c-.23 2.5.3 5.02 1.518 7.223 1.534-1.245 2.596-3.249 2.853-5.773.255-2.506-.34-5.077-1.52-7.224-1.533 1.245-2.594 3.25-2.852 5.774zM135.495 120.818a10.899 10.899 0 0 0-2.38-6.963 9.587 9.587 0 0 0-2.587 6.542 10.899 10.899 0 0 0 2.38 6.963 9.603 9.603 0 0 0 2.59-6.534l-.003-.008zM137.239 46.803c-3.038-4.402-8.903-5.685-13.391-2.93 3.035 4.405 8.903 5.689 13.39 2.93zM148.693 75.187c-1.872-1.782-4.472-2.687-7.188-2.728a7.895 7.895 0 0 0 2.473 6.492 10.56 10.56 0 0 0 7.185 2.72 7.904 7.904 0 0 0-2.473-6.492l.003.008z" opacity=".204"/>
        <path d="M145.405 67.426a9.738 9.738 0 0 0-6.869-2.005 9.197 9.197 0 0 0 3.5 6.076 9.755 9.755 0 0 0 6.85 2.002 9.204 9.204 0 0 0-3.481-6.073zM101.578 138.863a9.881 9.881 0 0 0-1.923 6.913c2.292-.296 4.457-1.471 5.993-3.478a9.864 9.864 0 0 0 1.93-6.916 8.909 8.909 0 0 0-5.992 3.479l-.008.002zM132.131 40.761a10.56 10.56 0 0 0-3.361-7 10.446 10.446 0 0 0-7.218-2.79 10.56 10.56 0 0 0 3.361 7 10.446 10.446 0 0 0 7.218 2.79zM114.517 139.047c1.099-2.277 1.265-4.913.635-7.356a8.197 8.197 0 0 0-5.034 4.42c-1.089 2.282-1.258 4.91-.633 7.364 2.105-.635 3.938-2.135 5.035-4.42l-.003-.008zM123.036 133.732a7.949 7.949 0 0 0 .24-6.638c-2.325 1.069-4.293 2.866-5.382 5.148a7.957 7.957 0 0 0-.248 6.641c2.33-1.08 4.293-2.866 5.39-5.151zM138.467 45.744a9.417 9.417 0 0 0 2.014-6.855c-.28-2.5-1.578-4.633-3.458-6.08a9.409 9.409 0 0 0-2.014 6.854c.28 2.5 1.578 4.633 3.458 6.08zM141.841 57.639a10.617 10.617 0 0 0-7.297-.694 8.399 8.399 0 0 0 4.422 5.123 10.625 10.625 0 0 0 7.297.693 8.416 8.416 0 0 0-4.42-5.114l-.002-.008zM136.783 49.798a7.758 7.758 0 0 0-6.58-.296c1.078 2.361 2.877 4.365 5.145 5.483a7.758 7.758 0 0 0 6.579.296 11.325 11.325 0 0 0-5.144-5.483zM68.663 145.684c-4.24-2.454-9.593-1.204-12.284 2.868 4.24 2.45 9.59 1.2 12.284-2.868zM133.067 132.015c-2.48.263-4.569 1.555-5.995 3.444 1.929 1.538 4.327 2.342 6.806 2.08 2.48-.263 4.569-1.555 5.995-3.444-1.918-1.533-4.33-2.35-6.806-2.08zM139.668 124.145c-2.33.695-4.223 2.099-5.438 3.834a9.926 9.926 0 0 0 6.59.229c2.331-.695 4.221-2.107 5.44-3.834a9.918 9.918 0 0 0-6.592-.229zM118.138 140.362a9.575 9.575 0 0 0 6.537 2.63 10.28 10.28 0 0 0 6.794-2.456 9.567 9.567 0 0 0-6.538-2.63c-2.59-.03-4.969.905-6.793 2.456zM145.017 115.193a9.194 9.194 0 0 0-4.642 4.947c4.64 1.505 9.604-.835 11.418-5.382a9.177 9.177 0 0 0-6.776.435zM97.174 149.075c-2.268-1.117-4.844-1.287-7.222-.656.696 2.151 2.238 4.02 4.508 5.146 2.274 1.134 4.847 1.295 7.226.664-.697-2.15-2.238-4.02-4.52-5.15l.008-.004zM148.297 105.422a9.511 9.511 0 0 0-3.854 5.983 9.062 9.062 0 0 0 6.845-1.488 9.511 9.511 0 0 0 3.854-5.983 9.054 9.054 0 0 0-6.845 1.488zM107.405 146.251a11.234 11.234 0 0 0-7.405.526 8.586 8.586 0 0 0 5.342 4.143c2.466.67 5.073.484 7.405-.526a8.577 8.577 0 0 0-5.342-4.143z" opacity=".204"/>
        <path d="M116.722 142.434a9.394 9.394 0 0 0-7.14 1.321 10.24 10.24 0 0 0 6.223 4.171 9.377 9.377 0 0 0 7.14-1.321 10.223 10.223 0 0 0-6.223-4.17zM148.464 102.534a7.857 7.857 0 0 0 6.41-2.6 10.598 10.598 0 0 0 2.587-7.232 7.857 7.857 0 0 0-6.401 2.598 10.631 10.631 0 0 0-2.596 7.234zM96.131 145.306c1.749-1.874 2.627-4.486 2.638-7.24a7.636 7.636 0 0 0-6.4 2.446 10.628 10.628 0 0 0-2.646 7.243 7.636 7.636 0 0 0 6.408-2.449zM146.538 62.666c2.05-1.458 3.56-3.643 4.09-6.244a9.705 9.705 0 0 0-1.372-7.229c-2.042 1.455-3.551 3.64-4.079 6.25a9.713 9.713 0 0 0 1.361 7.223zM143.112 53.995a9.624 9.624 0 0 0 2.556-6.584 10.591 10.591 0 0 0-2.482-6.874 9.607 9.607 0 0 0-2.547 6.581 10.64 10.64 0 0 0 2.473 6.877zM153.02 85.401a9.704 9.704 0 0 0-1.895 6.868c2.31-.348 4.476-1.568 6.014-3.593a9.688 9.688 0 0 0 1.887-6.865 9.225 9.225 0 0 0-6.006 3.59zM151.833 75.001a9.205 9.205 0 0 0-.804 6.716c4.559-1.463 7.165-6.287 5.945-11.003a8.958 8.958 0 0 0-5.141 4.287zM149.886 73.155a8.456 8.456 0 0 0 4.05-5.361c.643-2.478.44-5.112-.577-7.477a8.464 8.464 0 0 0-4.05 5.362 11.591 11.591 0 0 0 .569 7.479l.008-.003zM36.9 122.805a10.678 10.678 0 0 0-4.99-5.392 8.388 8.388 0 0 0-6.744-.418c.987 2.302 2.72 4.267 4.99 5.392a8.405 8.405 0 0 0 6.745.418zM33.018 111.605a7.779 7.779 0 0 0-4.226-5.064 11.222 11.222 0 0 0-7.461-.762 7.77 7.77 0 0 0 4.225 5.064 11.246 11.246 0 0 0 7.462.762zM21.67 102.626a10.091 10.091 0 0 0 7.057 2.397 9.845 9.845 0 0 0-3.423-6.541 10.091 10.091 0 0 0-7.053-2.39 9.817 9.817 0 0 0 3.42 6.534zM25.722 84.565a8.934 8.934 0 0 0-1.08-6.918c-1.334-2.137-3.45-3.558-5.824-4.138a8.908 8.908 0 0 0 1.08 6.918c1.334 2.138 3.45 3.558 5.824 4.138zM25.545 94.477a10.733 10.733 0 0 0-2.33-6.944 9.605 9.605 0 0 0-6.07-3.597 10.724 10.724 0 0 0 2.33 6.944c1.625 2.038 3.805 3.257 6.07 3.597zM25.703 73.825c1.755-4.56-.354-9.752-4.788-11.784-1.76 4.56.35 9.756 4.788 11.784zM31.819 55.6c1.546-1.849 2.414-4.234 2.241-6.78-.154-2.545-1.327-4.774-3.096-6.359a9.571 9.571 0 0 0-2.244 6.773A9.348 9.348 0 0 0 31.82 55.6zM27.565 64.229c2.408-4.24 1.123-9.684-2.932-12.423-2.408 4.24-1.124 9.684 2.932 12.423zM53.344 138.994c-2.51.148-4.715 1.31-6.27 3.082a9.484 9.484 0 0 0 6.728 2.313 8.991 8.991 0 0 0 6.277-3.084 9.51 9.51 0 0 0-6.735-2.31zM71.408 147.649c-2.26.903-4.005 2.453-5.027 4.265 2.205.623 4.542.495 6.651-.365 2.26-.903 4.005-2.453 5.027-4.265a10.245 10.245 0 0 0-6.651.365zM82.247 149.532a9.346 9.346 0 0 0-4.059 5.848 8.629 8.629 0 0 0 6.844-1.031 9.346 9.346 0 0 0 4.056-5.856 8.637 8.637 0 0 0-6.844 1.03l.003.009zM39.485 56.524a9.146 9.146 0 0 0 4.79-4.8 9.09 9.09 0 0 0-11.568 4.95 9.083 9.083 0 0 0 6.776-.158l.002.008zM85.646 140.337a9.956 9.956 0 0 0-7.013-2.349c.67 5.303 5.292 9.205 10.547 8.906a10.115 10.115 0 0 0-3.534-6.557zM43.547 129.302a9.772 9.772 0 0 0-5.735-4.258 9.115 9.115 0 0 0-6.917.895 9.755 9.755 0 0 0 5.742 4.256 9.123 9.123 0 0 0 6.91-.893zM45.207 133.512a7.775 7.775 0 0 0-6.61 1.936 10.605 10.605 0 0 0 6.514 4.097 7.775 7.775 0 0 0 6.612-1.936 10.63 10.63 0 0 0-6.516-4.097z" opacity=".204"/>
    </g>
</svg>
