<svg xmlns="http://www.w3.org/2000/svg" width="64" height="44" viewBox="0 0 64 44">
    <path fill="#201712" fill-rule="evenodd" d="M50.031 16C57.746 16 64 22.268 64 30s-6.254 14-13.969 14c-7.714 0-13.969-6.268-13.969-14L36 28C36 12.536 48.508 0 63.938 0v8c-5.33 0-10.342 2.08-14.111 5.858a20.259 20.259 0 0 0-1.985 2.314 14.046 14.046 0 0 1 2.19-.172m-36 0C21.745 16 28 22.268 28 30s-6.254 14-13.969 14S.062 37.732.062 30L0 28C0 12.536 12.508 0 27.938 0v8c-5.33 0-10.342 2.08-14.11 5.858a20.259 20.259 0 0 0-1.986 2.314 14.043 14.043 0 0 1 2.19-.172"/>
</svg>
