<svg xmlns="http://www.w3.org/2000/svg" width="30" height="30" viewBox="0 0 30 30">
    <defs>
        <linearGradient id="a" x1="18.641%" x2="72.188%" y1="-9.182%" y2="91.908%">
            <stop offset="0%" stop-color="#5B779E"/>
            <stop offset="39.9%" stop-color="#2D3B50"/>
            <stop offset="100%" stop-color="#0C0E14"/>
        </linearGradient>
        <linearGradient id="b" x1="54.358%" x2="92.291%" y1="25.088%" y2="95.992%">
            <stop offset="0%" stop-opacity="0"/>
            <stop offset="100%" stop-opacity=".62"/>
        </linearGradient>
        <radialGradient id="c" cx="34.155%" cy="17.268%" r="191.068%" fx="34.155%" fy="17.268%" gradientTransform="scale(1 .8384) rotate(-11.492 .507 .19)">
            <stop offset="0%" stop-color="#E6F1FD"/>
            <stop offset="0%" stop-color="#BDD9F9"/>
            <stop offset="6.5%" stop-color="#BDD9F9"/>
            <stop offset="100%" stop-color="#1C3556" stop-opacity=".1"/>
        </radialGradient>
        <linearGradient id="d" x1="-4.109%" x2="70.083%" y1="-37.869%" y2="62.914%">
            <stop offset="0%" stop-opacity="0"/>
            <stop offset="100%" stop-opacity=".62"/>
        </linearGradient>
        <radialGradient id="e" cx="55.421%" cy="-15.802%" r="214.91%" fx="55.421%" fy="-15.802%" gradientTransform="matrix(.97995 -.11971 .19924 .58882 .043 .001)">
            <stop offset="0%" stop-color="#E6F1FD"/>
            <stop offset="0%" stop-color="#BDD9F9"/>
            <stop offset="6.5%" stop-color="#BDD9F9"/>
            <stop offset="100%" stop-color="#1C3556" stop-opacity=".1"/>
        </radialGradient>
        <linearGradient id="f" x1="15.418%" x2="121.694%" y1="-18.826%" y2="68.629%">
            <stop offset="0%" stop-color="#FDEC97"/>
            <stop offset="35.3%" stop-color="#FDEC97"/>
            <stop offset="51.3%" stop-color="#FDEC97"/>
            <stop offset="62.8%" stop-color="#DB990F"/>
            <stop offset="100%" stop-color="#DB990F"/>
        </linearGradient>
        <linearGradient id="g" x1="18.951%" x2="115.91%" y1="128.94%" y2="33.789%">
            <stop offset="0%" stop-color="#FFDC76"/>
            <stop offset="32.7%" stop-color="#E4903B"/>
            <stop offset="45.1%" stop-color="#CA4400"/>
            <stop offset="58%" stop-color="#FDEC97"/>
            <stop offset="70.4%" stop-color="#DB990F"/>
            <stop offset="100%" stop-color="#DB990F"/>
        </linearGradient>
        <linearGradient id="h" x1="62.422%" x2="-6.242%" y1="112.403%" y2="42.796%">
            <stop offset="0%" stop-color="#FFDC76"/>
            <stop offset="32.7%" stop-color="#E4903B"/>
            <stop offset="45.1%" stop-color="#CA4400"/>
            <stop offset="58%" stop-color="#FDEC97"/>
            <stop offset="70.4%" stop-color="#DB990F"/>
            <stop offset="100%" stop-color="#DB990F"/>
        </linearGradient>
        <linearGradient id="i" x1="-17.901%" x2="68.022%" y1="74.733%" y2="-18.448%">
            <stop offset="0%" stop-color="#CA4400"/>
            <stop offset="35.3%" stop-color="#CA4400"/>
            <stop offset="51.3%" stop-color="#FDEC97"/>
            <stop offset="62.8%" stop-color="#DB990F"/>
            <stop offset="100%" stop-color="#DB990F"/>
        </linearGradient>
        <linearGradient id="j" x1="12.655%" x2="82.258%" y1=".581%" y2="93.821%">
            <stop offset="0%" stop-color="#DA940F"/>
            <stop offset="23.5%" stop-color="#EFD11A"/>
            <stop offset="75%" stop-color="#EFD11A"/>
            <stop offset="90.8%" stop-color="#EFD11A"/>
            <stop offset="100%" stop-color="#D3900E"/>
        </linearGradient>
        <linearGradient id="k" x1="17.387%" x2="99.368%" y1=".247%" y2="97.445%">
            <stop offset="0%" stop-color="#C63000"/>
            <stop offset="49.1%" stop-color="#DB9000"/>
            <stop offset="80%" stop-color="#DB9000"/>
            <stop offset="100%" stop-color="#C43B00"/>
        </linearGradient>
        <linearGradient id="l" x1="123.761%" x2="30.527%" y1="10.125%" y2="97.461%">
            <stop offset="0%" stop-color="#AD2F00"/>
            <stop offset="100%" stop-color="#CB7500"/>
        </linearGradient>
        <linearGradient id="m" x1="122.5%" x2="-5%" y1="10.804%" y2="81.033%">
            <stop offset="0%" stop-color="#ECD500"/>
            <stop offset="86.9%" stop-color="#ECD500"/>
            <stop offset="100%" stop-color="#FFEF57"/>
        </linearGradient>
        <linearGradient id="n" x1="48.402%" x2="70.04%" y1="-4.76%" y2="101.64%">
            <stop offset="0%" stop-color="#FFD511"/>
            <stop offset="100%" stop-color="#FDF8DC"/>
        </linearGradient>
        <linearGradient id="o" x1="-15.179%" x2="86.362%" y1="8.645%" y2="99.995%">
            <stop offset="0%" stop-color="#BD3300"/>
            <stop offset="18.8%" stop-color="#BD3300"/>
            <stop offset="41.1%" stop-color="#CB8500"/>
            <stop offset="100%" stop-color="#C26F00"/>
        </linearGradient>
        <linearGradient id="p" x1="-34.441%" x2="78.243%" y1="12.272%" y2="91.868%">
            <stop offset="0%" stop-color="#FFD303"/>
            <stop offset="90.2%" stop-color="#FFD303"/>
            <stop offset="100%" stop-color="#D27E00"/>
        </linearGradient>
        <linearGradient id="q" x1="79.596%" x2="20.686%" y1="-1.868%" y2="99.354%">
            <stop offset="0%" stop-color="#A51F00"/>
            <stop offset="28.8%" stop-color="#C67200"/>
            <stop offset="64.4%" stop-color="#C67200"/>
            <stop offset="100%" stop-color="#C25500"/>
        </linearGradient>
        <linearGradient id="r" x1="77.736%" x2="-5.566%" y1=".332%" y2="99.269%">
            <stop offset="0%" stop-color="#CD7C00"/>
            <stop offset="31.4%" stop-color="#EED700"/>
            <stop offset="100%" stop-color="#EED700"/>
        </linearGradient>
        <linearGradient id="s" x1="49.449%" x2="65.614%" y1="-5.688%" y2="100.606%">
            <stop offset="0%" stop-color="#FFD511"/>
            <stop offset="100%" stop-color="#FDF8DC"/>
        </linearGradient>
        <linearGradient id="t" x1="-5.855%" x2="109.415%" y1="73.2%" y2="25.333%">
            <stop offset="0%" stop-color="#51290E"/>
            <stop offset="34.6%" stop-color="#D08E29"/>
            <stop offset="41.7%" stop-color="#E1D02D"/>
            <stop offset="49.8%" stop-color="#F6E57F"/>
            <stop offset="53.7%" stop-color="#F6E57F"/>
            <stop offset="60.5%" stop-color="#E1D02D"/>
            <stop offset="68.7%" stop-color="#D08E29"/>
            <stop offset="100%" stop-color="#452A15"/>
        </linearGradient>
        <linearGradient id="u" x1="80.42%" x2="17.546%" y1="93.148%" y2="4.341%">
            <stop offset="0%" stop-color="#FFE12B"/>
            <stop offset="13.6%" stop-color="#FFF7C7" stop-opacity="0"/>
            <stop offset="81.9%" stop-color="#FFF7C7" stop-opacity="0"/>
            <stop offset="100%" stop-color="#FFE12B"/>
        </linearGradient>
    </defs>
    <g fill="none" fill-rule="evenodd">
        <path fill="url(#a)" d="M26.072 13.254c.002 7.091-5.588 12.842-12.485 12.844C6.689 26.1 1.096 20.352 1.094 13.26v-.008C1.092 6.161 6.68.411 13.579.41c6.897-.002 12.49 5.744 12.493 12.836v.009z" transform="translate(1.719 1.7)"/>
        <path fill="url(#b)" d="M14.805.586l-5 .313a.66.66 0 0 0-.313.097L5.117 3.81a.661.661 0 0 0-.019 1.113c.577.389 1.148.836 1.309 1.25.346.916.738 2.259 1.074 3.418.148.517.304 1.031.469 1.543.07.214.129.405.195.566.066.162.108.284.274.47.025.02.05.04.078.058.296.24.604.372.976.488.373.116.803.207 1.211.274.41.067.801.091 1.153.097.352.006.6.083 1.015-.175a.733.733 0 0 0 .06-.04c.177-.141.195-.236.234-.312.038-.075.07-.138.097-.215.054-.152.104-.323.156-.527.25-.982.426-1.98.528-2.988.045-.443.099-.736 0-1.133-.005-.02.006-.037 0-.058h-.02c-.1-.484-.357-1.183-.801-1.973a6.129 6.129 0 0 0-1.563-1.816.563.563 0 0 1 .195-.118l2.442.019a.666.666 0 0 0 .215-.039c.058-.018.118.022.41-.117a.987.987 0 0 0 .41-.39c.085-.164.12-.302.137-.45l.156-1.426a.663.663 0 0 0-.703-.742z" transform="translate(1.719 1.7)"/>
        <path fill="url(#c)" d="M14.844 1.25l-.156 1.424c-.044.405-.215.306-.515.404l-2.572-.01c-.76.244-.842.648-.791.993 1.441.8 2.341 3.075 2.472 3.75.185.652-.528 4.33-.781 4.532-.427.266-2.957-.106-3.594-.625-.343-.384-1.148-3.854-1.875-5.781-.268-.69-.985-1.174-1.563-1.563l4.375-2.812 5-.312z" transform="translate(1.719 1.7)"/>
        <path fill="url(#d)" d="M2.363 8.496a.581.581 0 0 0-.507.43L.352 14.063a.58.58 0 0 0 .234.644c.577.389 1.174.842 1.348 1.29a.554.554 0 0 0 .058.097c.006.017.012.024.02.058.027.117.058.319.097.547a36.4 36.4 0 0 0 .332 1.72c.143.64.32 1.302.587 1.874.266.573.623 1.103 1.25 1.309-.152-.05-.026.006.058.059.085.052.195.124.332.215.274.18.624.408.976.644.353.236.707.486.997.664.144.09.275.155.39.215.058.03.11.053.176.078.066.025.105.087.371.039.306-.055.4-.226.45-.313.048-.087.059-.152.078-.215.037-.124.075-.249.097-.39.046-.285.079-.636.118-.977.038-.341.078-.687.117-.918.016-.095.029-.137.039-.175.043-.037.104-.032.137-.079a.794.794 0 0 0 .137-.507c-.011-.285-.102-.502-.215-.743-.228-.482-.6-1.036-1.016-1.62a34.349 34.349 0 0 0-2.129-2.696c-.034-.112-.053-.228-.097-.351-.055-.154-.116-.321-.156-.469.864.369 1.76.701 2.753.82a.572.572 0 0 0 .176-.02c.31-.051.612-.143.899-.273.168-.076.347-.154.507-.293a1.04 1.04 0 0 0 .371-.664.581.581 0 0 0-.097-.39c-1.11-1.66-2.707-2.085-4.375-2.696l-.958-1.172a.58.58 0 0 0-.215-.156l-1.543-.664a.57.57 0 0 0-.293-.059z" transform="translate(1.719 1.7)"/>
        <path fill="url(#e)" d="M5.016 11.039c1.762.657 3.208.992 4.236 2.53-.043.404-.928.677-1.288.735-1.067-.128-2.05-.51-3.014-.948-.954-.206-.124 1.476-.072 1.822.68.74 4.06 4.883 3.132 4.996-.228.028-.326 2.747-.537 2.784-.212.038-2.79-1.836-3.02-1.912-1.486-.49-1.73-5.124-1.972-5.263-.267-.69-.985-1.174-1.563-1.562l1.503-5.133 1.55.663 1.045 1.288z" transform="translate(1.719 1.7)"/>
        <g fill="#000" fill-opacity=".32">
            <path d="M27.708 8.216l-.02-4.337a.772.772 0 0 0-.78-.78l-3.966-.04a.775.775 0 0 0-.566 1.31l3.985 4.374a.775.775 0 0 0 1.347-.527z"/>
            <path d="M27.447 8.216l-.019-4.336a.514.514 0 0 0-.507-.508l-3.965-.038a.518.518 0 0 0-.391.86l3.984 4.374a.517.517 0 0 0 .898-.352z"/>
            <path d="M27.279 8.216l-.02-4.337a.348.348 0 0 0-.1-.25.35.35 0 0 0-.25-.102l-3.966-.038a.347.347 0 0 0-.254.585l3.984 4.375a.346.346 0 0 0 .606-.233z"/>
        </g>
        <path fill="#000" fill-opacity=".33" d="M27.087 8.219l-.019-4.336a.163.163 0 0 0-.02-.06.169.169 0 0 0-.038-.058.189.189 0 0 0-.02-.02.16.16 0 0 0-.077-.019.189.189 0 0 0-.02-.02l-3.965-.038a.16.16 0 0 0-.039.02.167.167 0 0 0-.058.019.175.175 0 0 0-.04.039.176.176 0 0 0-.018.058.163.163 0 0 0 0 .098.175.175 0 0 0 .038.059l3.985 4.375a.169.169 0 0 0 .137.038.166.166 0 0 0 .078-.019l.019-.02a.16.16 0 0 0 .039-.058.176.176 0 0 0 .018-.058z"/>
        <path fill="url(#f)" d="M23.179 3.91l3.705-.017-.036 3.98z"/>
        <g fill="#000" fill-opacity=".32">
            <path d="M23.203 26.621l4.336-.02a.772.772 0 0 0 .782-.78l.038-3.965a.774.774 0 0 0-1.308-.567l-4.375 3.985a.774.774 0 0 0 .527 1.347z"/>
            <path d="M23.216 26.361l4.336-.02a.515.515 0 0 0 .508-.507l.039-3.965a.517.517 0 0 0-.86-.39l-4.375 3.984a.516.516 0 0 0 .352.898z"/>
            <path d="M23.203 26.192l4.336-.02a.348.348 0 0 0 .352-.35l.038-3.966a.344.344 0 0 0-.585-.254l-4.375 3.984a.346.346 0 1 0 .234.606z"/>
        </g>
        <path fill="#000" fill-opacity=".33" d="M23.186 26.004l4.336-.02c.02-.002.04-.009.059-.019a.169.169 0 0 0 .058-.039.189.189 0 0 0 .02-.02.16.16 0 0 0 .02-.077.189.189 0 0 0 .019-.02l.038-3.965a.188.188 0 0 0-.02-.038.18.18 0 0 0-.018-.06.175.175 0 0 0-.04-.038.176.176 0 0 0-.058-.02.163.163 0 0 0-.098 0 .169.169 0 0 0-.058.04l-4.375 3.984a.169.169 0 0 0-.039.137c0 .027.007.054.02.078.005.007.012.013.019.02.016.016.036.03.059.038.018.01.037.016.058.019z"/>
        <path fill="url(#g)" d="M27.497 21.34l.014 4.433h-4.255z"/>
        <g fill="#000" fill-opacity=".32">
            <path d="M1.64 21.465l.02 4.336a.774.774 0 0 0 .781.782l3.965.038a.773.773 0 0 0 .567-1.308l-3.985-4.375a.775.775 0 0 0-1.347.527z"/>
            <path d="M1.914 21.478l.02 4.336c.003.28.228.504.507.508l3.965.039a.515.515 0 0 0 .39-.86l-3.984-4.375a.518.518 0 0 0-.898.352z"/>
            <path d="M2.07 21.465l.02 4.336a.343.343 0 0 0 .352.352l3.965.038a.344.344 0 0 0 .254-.585L2.676 21.23a.346.346 0 0 0-.605.234z"/>
        </g>
        <path fill="#000" fill-opacity=".33" d="M2.243 21.45l.02 4.337c.002.02.009.04.019.059a.175.175 0 0 0 .039.058c.005.008.012.014.019.02a.16.16 0 0 0 .078.02c.006.007.013.012.02.018l3.964.04a.173.173 0 0 0 .04-.02.18.18 0 0 0 .058-.02.175.175 0 0 0 .039-.038.176.176 0 0 0 .02-.059.162.162 0 0 0 0-.098.181.181 0 0 0-.04-.058l-3.984-4.375a.166.166 0 0 0-.137-.039.168.168 0 0 0-.078.02.142.142 0 0 0-.02.019.166.166 0 0 0-.038.058.163.163 0 0 0-.019.059z"/>
        <path fill="url(#h)" d="M6.505 25.759H2.5v-4.364z"/>
        <g fill="#000" fill-opacity=".32">
            <path d="M7.461 3.106l-4.336.019a.774.774 0 0 0-.781.781l-.039 3.965a.774.774 0 0 0 1.309.566l4.375-3.984a.773.773 0 0 0-.528-1.347z"/>
            <path d="M7.461 3.38l-4.336.019a.515.515 0 0 0-.507.507l-.04 3.965a.517.517 0 0 0 .86.39l4.375-3.983a.516.516 0 0 0-.352-.899z"/>
            <path d="M7.461 3.536l-4.336.019a.346.346 0 0 0-.351.351l-.039 3.965a.346.346 0 0 0 .586.254l4.375-3.984a.346.346 0 0 0-.235-.605z"/>
        </g>
        <path fill="#000" fill-opacity=".33" d="M7.461 3.711l-4.336.02a.163.163 0 0 0-.059.019.167.167 0 0 0-.058.04.142.142 0 0 0-.02.019.172.172 0 0 0-.02.078.142.142 0 0 0-.019.02L2.911 7.87a.15.15 0 0 0 .019.039c.003.02.01.04.02.059.01.015.023.028.038.038.018.01.038.017.059.02.032.01.066.01.097 0a.169.169 0 0 0 .06-.039l4.374-3.984a.165.165 0 0 0 .039-.137.172.172 0 0 0-.02-.078.142.142 0 0 0-.019-.02.163.163 0 0 0-.059-.038.164.164 0 0 0-.058-.02z"/>
        <path fill="url(#i)" d="M3.094 7.874l.023-3.958 4.341-.02z"/>
        <g fill="#000" fill-opacity=".29">
            <path d="M6.856 6.758a.251.251 0 0 0-.18.106.246.246 0 0 0-.035.207l.43 1.503 2.968 13.204-.273 1.445a.248.248 0 0 0 .234.292h4.316a.25.25 0 0 0 .235-.313l-.274-1.386.742-2.832.918 2.872-.41 1.328a.249.249 0 0 0 .235.332l4.863.02a.248.248 0 0 0 .234-.332l-.566-1.524L22.52 8.887l.84-1.778a.249.249 0 0 0-.214-.352h-4.239a.249.249 0 0 0-.253.294l.253 1.445-1.465 8.261-2.285-8.827a.249.249 0 0 0-.469 0l-2.206 8.77-1.837-8.204.235-1.445a.249.249 0 0 0-.078-.215.246.246 0 0 0-.176-.078h-3.75a.1.1 0 0 0-.02 0z"/>
            <path d="M6.777 6.563a.453.453 0 0 0-.331.566l.429 1.484h-.02l2.97 13.164-.274 1.406a.456.456 0 0 0 .449.528h4.316a.456.456 0 0 0 .45-.547l-.274-1.328.547-2.09.684 2.109-.391 1.27a.454.454 0 0 0 .43.586l4.863.02a.456.456 0 0 0 .43-.606l-.547-1.484 2.207-12.657.84-1.777a.457.457 0 0 0-.41-.644h-4.239a.456.456 0 0 0-.45.526l.235 1.407-1.27 7.266-2.05-7.89a.456.456 0 0 0-.898 0l-1.992 7.89-1.622-7.325.215-1.347a.454.454 0 0 0-.449-.527h-3.75a.462.462 0 0 0-.097 0z"/>
            <path d="M6.738 6.367a.649.649 0 0 0-.488.821l.43 1.465v.039l2.95 13.047-.274 1.406c-.034.19.019.384.143.532.125.147.308.231.501.23h4.316a.65.65 0 0 0 .645-.781l-.274-1.33.372-1.367.45 1.426-.372 1.211a.65.65 0 0 0 .625.84l4.863.02a.65.65 0 0 0 .606-.86l-.528-1.425L22.91 9.023l.82-1.738a.65.65 0 0 0-.586-.918h-4.238a.648.648 0 0 0-.644.762l.234 1.367-1.132 6.368-1.816-7.032a.65.65 0 0 0-1.25 0L12.5 14.982l-1.445-6.504.215-1.368a.648.648 0 0 0-.645-.742h-3.75a.626.626 0 0 0-.137 0z"/>
            <path fill-rule="nonzero" d="M6.777 6.133a.884.884 0 0 0-.761 1.113l.43 1.465v.039l2.949 13.027-.254 1.31a.883.883 0 0 0 .86 1.054h4.316a.884.884 0 0 0 .722-.372.884.884 0 0 0 .723.372l4.863.02a.887.887 0 0 0 .82-1.191l-.488-1.348 2.168-12.5.82-1.719a.886.886 0 0 0-.8-1.27h-4.239a.884.884 0 0 0-.878 1.035l.234 1.328-.938 5.254-1.543-5.976a.883.883 0 0 0-1.719 0l-1.543 6.152-1.23-5.469.215-1.308a.883.883 0 0 0-.879-1.016h-3.75a.846.846 0 0 0-.097 0zm8.301 15.156l.195.587-.215.663-.137-.663.157-.587z"/>
            <path d="M6.87 7.012l.444 1.499 2.98 13.252L10 23.267h4.321l-.298-1.45.981-3.72 1.182 3.769-.42 1.4 4.868.01-.598-1.588 2.238-12.833.87-1.846-4.238.003.246 1.491-1.654 9.427-2.575-9.941-2.462 9.765-2.07-9.297.234-1.445z"/>
        </g>
        <path fill="url(#j)" d="M6.875 7.012l2.112 1.56 2.827 13.147-1.816 1.548.295-1.509L7.324 8.516z"/>
        <path fill="#792100" d="M11.816 21.719l-1.819 1.548 4.33-.005-1.67-1.533z"/>
        <path fill="url(#k)" d="M10.615 7.026l-1.626 1.55 2.827 13.142.832.008-.167-4.09-2.012-9.12z"/>
        <path fill="url(#l)" d="M14.324 23.267l-1.665-1.536 2.336-8.977.01 5.337-.981 3.726z"/>
        <path fill="url(#m)" d="M14.922 7.969L15 12.715l-2.346 9.021-.154-4.06z"/>
        <path fill="url(#n)" d="M6.87 7.012l2.12 1.562 1.635-1.557z"/>
        <path fill="url(#o)" d="M14.917 7.979l.078 4.77 2.15 8.989 1.342.006z"/>
        <path fill="url(#p)" d="M14.995 12.754l.01 5.327 1.185 3.782-.42 1.398 1.388-1.518z"/>
        <path fill="#792100" d="M18.481 21.736l-1.318.005-1.402 1.526 4.87.009z"/>
        <path fill="url(#q)" d="M22.27 8.834l.87-1.811-2.345 1.326-2.323 13.391 2.164 1.54-.6-1.591z"/>
        <path fill="url(#r)" d="M19.152 8.496l-.253-1.47 1.898 1.314-2.325 13.386-.976-3.799z"/>
        <path fill="url(#s)" d="M18.897 7.022l1.889 1.332 2.364-1.34z"/>
        <path fill="#000" fill-opacity=".26" fill-rule="nonzero" d="M15 .723C7.13.723.742 7.12.742 15.001.742 22.883 7.13 29.278 15 29.278c7.871 0 14.258-6.396 14.258-14.278C29.258 7.118 22.87.723 15 .723zm-.059 2.46c6.456 0 11.68 5.238 11.68 11.72 0 6.481-5.224 11.738-11.68 11.738-6.455 0-11.7-5.257-11.7-11.738.002-6.482 5.245-11.72 11.7-11.72z"/>
        <path fill="#000" fill-opacity=".28" fill-rule="nonzero" d="M15 .508C7.012.508.527 7.002.527 15.001c0 7.998 6.485 14.492 14.473 14.492S29.473 23 29.473 15.001C29.473 7 22.988.508 15 .508zm-.059 2.89c6.338 0 11.465 5.14 11.465 11.505 0 6.364-5.127 11.523-11.465 11.523-6.337 0-11.484-5.159-11.484-11.523 0-6.365 5.146-11.504 11.484-11.504z"/>
        <path fill="#000" fill-opacity=".41" fill-rule="nonzero" d="M15 .156C6.822.156.176 6.812.176 15c0 8.188 6.646 14.844 14.824 14.844 8.179 0 14.824-6.656 14.824-14.844C29.824 6.812 23.18.156 15 .156zm-.059 3.594c6.148 0 11.113 4.976 11.113 11.152 0 6.177-4.966 11.172-11.113 11.172-6.146 0-11.132-4.997-11.132-11.172C3.809 8.729 8.793 3.75 14.94 3.75z"/>
        <path fill="url(#t)" fill-rule="nonzero" d="M15 .938C7.244.938.957 7.232.957 15c0 7.767 6.287 14.063 14.043 14.063 7.756 0 14.043-6.296 14.043-14.063S22.756.937 15 .937zm-.059 2.03c6.57 0 11.895 5.339 11.895 11.934 0 6.596-5.325 11.954-11.895 11.954-6.57 0-11.914-5.358-11.914-11.954 0-6.595 5.344-11.933 11.914-11.933z"/>
        <path fill="url(#u)" fill-rule="nonzero" d="M14.646 1.03c-7.364 0-13.32 5.964-13.32 13.34 0 7.375 5.957 13.34 13.32 13.34s13.32-5.965 13.32-13.34c0-7.376-5.957-13.34-13.32-13.34zm-.06.585c6.964 0 12.618 5.67 12.618 12.656 0 6.986-5.652 12.676-12.617 12.676-6.965 0-12.636-5.688-12.636-12.676S7.624 1.615 14.587 1.615z"/>
    </g>
</svg>
